<?xml version="1.0" encoding="UTF-8" standalone="no"?>
<!-- Created with Inkscape (http://www.inkscape.org/) -->

<svg
   width="500"
   height="500"
   viewBox="0 0 500 500"
   version="1.1"
   id="svg3091"
   xml:space="preserve"
   xmlns:xlink="http://www.w3.org/1999/xlink"
   xmlns="http://www.w3.org/2000/svg"
   xmlns:svg="http://www.w3.org/2000/svg"
   xmlns:rdf="http://www.w3.org/1999/02/22-rdf-syntax-ns#"
   xmlns:cc="http://creativecommons.org/ns#"><defs
     id="defs3088"><color-profile
       name="Gray-Tone"
       xlink:href="file:///Library/ColorSync/Profiles/Gray%20Tone.icc"
       id="color-profile13278" /></defs><g
     id="layer1"><g
       id="g13258"
       transform="matrix(1.6535746,0,0,1.6301824,122.79589,-780.51886)"><path
         style="fill:#ffffff;fill-opacity:1;fill-rule:nonzero;stroke:#000000;stroke-width:7.98899;stroke-linecap:round;stroke-linejoin:miter;stroke-dasharray:none;stroke-opacity:0.557789;paint-order:markers stroke fill"
         d="m 92.17024,685.65099 -0.42582,0.84647 c -0.70625,0.28042 -3.31833,0.42582 -7.84663,0.42582 -1.27228,0 -5.02165,0.0675 -11.23767,0.20772 -5.37477,0.28562 -9.69015,0.34793 -12.94097,0.21292 -4.81392,-0.14022 -8.54769,-0.49853 -11.23767,-1.06457 l -0.21291,-0.85684 0.44141,-0.84646 c 0.73221,-0.42583 1.30863,-0.71145 1.75003,-0.86205 0.73223,-0.84646 1.09573,-1.98373 1.09573,-3.40661 0,-1.13207 -7.32734,-21.73272 -22.00795,-61.80197 C 14.88792,578.43619 7.12438,557.76283 6.27792,556.49053 L 5.43146,555.8518 c -0.71145,0.57122 -1.20478,1.35538 -1.48521,2.34204 l -35.20339,106.17622 c -1.98372,5.95118 -2.97039,10.9157 -2.97039,14.88835 0,0.99705 0.63354,2.20183 1.90582,3.61953 3.25084,0.70625 6.64705,1.6306 10.1835,2.76267 v 1.28267 c -0.28561,0.13503 -1.27749,0.28042 -2.97041,0.42064 h -40.084814 c -1.978534,0 -3.178113,-0.14022 -3.60395,-0.42064 l -0.425823,-0.85165 0.638741,-0.85166 c 4.102479,-0.85164 8.194562,-1.6306 12.29704,-2.34203 2.970393,-0.99187 6.081013,-4.67891 9.331831,-11.06112 1.698109,-3.25601 5.65519,-13.53296 11.876405,-30.83087 L 4.36689,532.11976 c 0.56604,-1.97854 1.97854,-4.74641 4.24269,-8.28804 h 0.84645 c 2.68998,3.25082 5.30726,8.48018 7.85183,15.69326 1.97335,5.65519 3.95708,11.23767 5.93561,16.75265 l 30.10906,78.04569 c 2.26414,6.36663 4.60099,12.66056 7.00016,18.88177 2.825,7.62852 5.65,13.78224 8.49577,18.44556 4.08688,6.93267 9.04621,11.01957 14.83641,12.30224 1.5631,0 3.11062,0.0675 4.66852,0.21291 2.40435,0.13502 3.67145,0.63355 3.81685,1.48519"
         id="path62" /><path
         style="fill:#ffffff;fill-opacity:1;fill-rule:nonzero;stroke:#000000;stroke-width:7.98899;stroke-linecap:round;stroke-linejoin:miter;stroke-dasharray:none;stroke-opacity:0.557789;paint-order:markers stroke fill"
         d="m 221.36186,582.73081 -0.2181,0.85164 -0.42582,0.42064 c -0.84646,0.28561 -3.25083,0.63354 -7.21309,1.05418 -2.68479,0.28561 -5.12031,1.58906 -7.31695,3.92071 -2.19145,2.33167 -6.25238,10.77031 -12.19318,25.31591 -8.33996,19.9048 -20.92263,49.84248 -37.75315,89.80266 -2.825,6.77688 -5.5773,13.55376 -8.26208,20.33063 -3.40142,7.90895 -6.71975,14.33789 -9.97058,19.27644 l -1.27747,0.42582 c -1.69292,0 -4.23749,-4.24268 -7.63892,-12.72805 L 77.14687,601.18675 c -1.98891,-4.94894 -3.75454,-8.34517 -5.30724,-10.18349 -2.11874,-2.25896 -5.44747,-4.3102 -9.96539,-6.14852 h -0.84646 l -0.63874,-0.42063 c -3.256,0.28041 -5.72788,0 -7.42599,-0.85166 l -0.42064,-1.05936 0.42064,-0.63875 1.05937,-0.63874 c 0.28562,0 0.56603,0 0.85166,0 0.42062,0 0.70625,0 0.84646,0 h 46.45144 c 2.53938,0 4.305,0.28561 5.29687,0.84646 l 0.42062,0.62835 -0.20252,0.84646 c -0.15059,0.27523 -1.94737,0.52449 -5.4215,0.73741 -3.45854,0.20772 -5.82136,1.29307 -7.10404,3.2612 -0.1402,0.41544 -0.20252,1.0438 -0.20252,1.89026 0,1.54233 1.89545,7.36369 5.70192,17.46409 l 40.67682,108.81426 c 32.27454,-78.06648 48.13918,-120.41545 47.56275,-127.06248 -0.42063,-0.84647 -0.77376,-1.62022 -1.05418,-2.33167 -0.71144,-0.70625 -1.27229,-1.19958 -1.69811,-1.4852 h -0.84646 c -0.99186,-0.53488 -2.51341,-0.76338 -4.56465,-0.70105 -2.04604,0.0675 -3.4949,-0.0311 -4.35174,-0.30119 l -0.62836,-0.99706 0.21291,-0.60759 0.85685,-0.59719 c 1.2619,-0.26484 2.46148,-0.40506 3.59357,-0.40506 h 37.32214 c 0.431,0 1.28266,0.1454 2.55495,0.43102 l 0.63354,0.42063 0.43102,0.63356"
         id="path64" /></g></g><metadata
     id="metadata4668"><rdf:RDF><cc:Work
         rdf:about=""><cc:license
           rdf:resource="http://creativecommons.org/licenses/by-sa/4.0/" /></cc:Work><cc:License
         rdf:about="http://creativecommons.org/licenses/by-sa/4.0/"><cc:permits
           rdf:resource="http://creativecommons.org/ns#Reproduction" /><cc:permits
           rdf:resource="http://creativecommons.org/ns#Distribution" /><cc:requires
           rdf:resource="http://creativecommons.org/ns#Notice" /><cc:requires
           rdf:resource="http://creativecommons.org/ns#Attribution" /><cc:permits
           rdf:resource="http://creativecommons.org/ns#DerivativeWorks" /><cc:requires
           rdf:resource="http://creativecommons.org/ns#ShareAlike" /></cc:License></rdf:RDF></metadata></svg>
