<?xml version="1.0" encoding="UTF-8" standalone="no"?>
<svg
   width="754.35pt"
   height="288.85pt"
   viewBox="0 0 754.35 288.85"
   version="1.1"
   id="svg149"
   sodipodi:docname="logo-el-claustro.svg"
   inkscape:version="1.2.2 (b0a84865, 2022-12-01)"
   xmlns:inkscape="http://www.inkscape.org/namespaces/inkscape"
   xmlns:sodipodi="http://sodipodi.sourceforge.net/DTD/sodipodi-0.dtd"
   xmlns="http://www.w3.org/2000/svg"
   xmlns:svg="http://www.w3.org/2000/svg">
  <sodipodi:namedview
     id="namedview151"
     pagecolor="#ffffff"
     bordercolor="#000000"
     borderopacity="0.25"
     inkscape:showpageshadow="2"
     inkscape:pageopacity="0.0"
     inkscape:pagecheckerboard="0"
     inkscape:deskcolor="#d1d1d1"
     inkscape:document-units="pt"
     showgrid="false"
     inkscape:zoom="0.61277478"
     inkscape:cx="503.44761"
     inkscape:cy="22.030933"
     inkscape:window-width="1920"
     inkscape:window-height="1027"
     inkscape:window-x="0"
     inkscape:window-y="25"
     inkscape:window-maximized="1"
     inkscape:current-layer="svg149" />
  <defs
     id="defs56">
    <clipPath
       id="clip1">
      <path
         d="M 628 87 L 754.351563 87 L 754.351563 212 L 628 212 Z M 628 87 "
         id="path2" />
    </clipPath>
  </defs>
  <path
     style="fill:#211e1e;fill-opacity:1;fill-rule:nonzero;stroke:none"
     d="m 107.20703,211.60156 c -0.85547,5.15625 -1.49219,8.16016 -1.91797,9.00781 V 221.25 l -0.3164,0.64062 v 0.63672 l -0.32032,0.47657 v 0.80078 c -2.97656,4.67578 -15.37109,7.01562 -37.171871,7.01562 -1.808594,0 -5.851563,-0.47265 -12.125,-1.43359 C 38.019531,226.73047 24.570313,220.13281 14.996094,209.60156 5,198.64844 0,184.23828 0,166.375 0,158.29297 2.074219,149.25 6.222656,139.25 c 9.355469,-22.4375 29.992188,-33.66016 61.894532,-33.66016 3.722656,0 10.691406,0.58594 20.902343,1.75391 11.058599,1.27734 17.281249,2.34375 18.664059,3.19141 0.32032,0.32031 0.47657,0.95703 0.47657,1.91406 0,0.63672 -0.13282,1.625 -0.39844,2.95312 -0.26563,1.33204 -0.39844,2.25782 -0.39844,2.78907 0,4.78906 -0.3164,11.91406 -0.95703,21.3789 l -0.47656,0.63672 -0.48047,0.16016 -0.79688,-0.16016 c -0.21484,-2.33594 -0.63671,-5.36719 -1.27734,-9.09375 -1.59375,-4.99609 -3.746094,-8.63672 -6.460937,-10.92578 -2.710938,-2.28516 -6.777344,-4.22656 -12.203125,-5.82422 -6.0625,-1.80859 -12.496094,-2.71094 -19.304688,-2.71094 -18.1875,0 -31.425781,4.84766 -39.71875,14.53907 -7.554687,8.94531 -11.328125,22.6875 -11.328125,41.21875 0,10.85937 3.242188,21.08203 9.730469,30.67187 6.484375,9.58594 14.730469,16.56641 24.726562,20.92578 7.230469,3.09375 16.058594,4.63672 26.480469,4.63672 15.421875,0 24.890625,-4.76172 28.398435,-14.29297 0.63672,-2.57031 1.64844,-5.73047 3.03125,-9.47656 l 0.63672,-0.16406 0.48047,0.32422 0.31641,0.47656 0.32031,1.59375 c 0,1.17578 -0.42578,4.33594 -1.27344,9.49609"
     id="path58" />
  <path
     style="fill:#211e1e;fill-opacity:1;fill-rule:nonzero;stroke:none"
     d="m 178.85547,242.32422 c 0,7.875 -1.22656,14.2539 -3.66797,19.14453 -1.06641,0.85156 -4.04297,1.27734 -8.9375,1.27734 h -8.13281 c -4.46875,0 -11.14453,-0.0781 -20.02344,-0.23828 -8.87891,-0.16406 -15.55469,-0.23828 -20.01953,-0.23828 -1.70313,0 -2.71094,-0.10937 -3.03125,-0.32031 l -0.16016,-0.64063 0.31641,-0.63672 c 1.70312,-0.10546 4.25391,-0.74218 7.66016,-1.91406 2.33984,-2.44922 3.51171,-12.97656 3.51171,-31.58984 v -68.75781 c -0.11328,-5.42188 -0.32812,-8.44922 -0.64843,-9.09375 -0.64453,-1.69532 -2.79688,-3.29297 -6.45703,-4.78125 -2.15235,-0.10547 -4.41016,-0.42188 -6.77735,-0.95703 l 0.16406,-0.96094 0.47657,-0.47266 c 0.95703,-0.21484 1.59765,-0.32422 1.91406,-0.32422 h 35.2539 c 0.32032,0 0.96094,0.10938 1.91797,0.32422 l 0.47657,0.47266 0.16015,0.48047 c 0,0.32031 -0.16015,0.58593 -0.47265,0.79687 -3.25782,0.64063 -6.46485,1.27734 -9.61329,1.91797 -1.89062,1.06641 -2.83593,5.26172 -2.83593,12.59766 v 58.23046 c 0,9.67969 0.16015,18.34766 0.47656,26.00391 0.32031,6.0625 1.80859,10.00391 4.46875,11.80469 2.23437,1.49219 6.91016,2.23047 14.03516,2.23047 7.44531,0 12.23437,-1.96094 14.36328,-5.89844 1.3789,-3.40234 2.71093,-6.80078 3.98828,-10.21094 l 0.63281,-0.15625 0.48047,0.15625 c 0.32031,0.32422 0.48047,0.90625 0.48047,1.75391"
     id="path60" />
  <path
     style="fill:#211e1e;fill-opacity:1;fill-rule:nonzero;stroke:none"
     d="m 280.01562,213.71484 -0.32031,0.63672 c -0.53125,0.21094 -2.49609,0.32031 -5.90234,0.32031 -0.95703,0 -3.77735,0.0508 -8.45313,0.15625 -4.04297,0.21485 -7.28906,0.26172 -9.73437,0.16016 -3.6211,-0.10547 -6.42969,-0.375 -8.45313,-0.80078 l -0.16015,-0.64453 0.33203,-0.63672 c 0.55078,-0.32031 0.98437,-0.53516 1.3164,-0.64844 0.55079,-0.63672 0.82422,-1.49219 0.82422,-2.5625 0,-0.85156 -5.51172,-16.34765 -16.55468,-46.48828 -11.02735,-30.14062 -16.86719,-45.6914 -17.50391,-46.64844 l -0.63672,-0.48046 c -0.53516,0.42968 -0.90625,1.01953 -1.11719,1.76171 l -26.48047,79.86719 c -1.49218,4.47656 -2.23437,8.21094 -2.23437,11.19922 0,0.75 0.47656,1.65625 1.43359,2.72266 2.44532,0.53125 5,1.22656 7.66016,2.07812 v 0.96484 c -0.21484,0.10157 -0.96094,0.21094 -2.23438,0.31641 h -30.15234 c -1.48828,0 -2.39062,-0.10547 -2.71094,-0.31641 l -0.32031,-0.64062 0.48047,-0.64063 c 3.08594,-0.64062 6.16406,-1.22656 9.25,-1.76171 2.23437,-0.7461 4.57422,-3.51954 7.01953,-8.32032 1.27734,-2.44922 4.25391,-10.17968 8.93359,-23.1914 l 29.67188,-81.890627 c 0.42578,-1.488282 1.48828,-3.570313 3.19141,-6.234375 h 0.63671 c 2.02344,2.445312 3.99219,6.378906 5.90625,11.804682 1.48438,4.25391 2.97657,8.45313 4.46485,12.60157 l 22.64844,58.70703 c 1.70312,4.78906 3.46093,9.52344 5.26562,14.20312 2.125,5.73828 4.25,10.36719 6.39063,13.875 3.07421,5.21485 6.80468,8.28907 11.16015,9.25391 1.17578,0 2.33985,0.0508 3.51172,0.16016 1.80859,0.10156 2.76172,0.47656 2.87109,1.11718"
     id="path62" />
  <path
     style="fill:#211e1e;fill-opacity:1;fill-rule:nonzero;stroke:none"
     d="m 377.19531,136.29688 -0.16406,0.64062 -0.32031,0.31641 c -0.63672,0.21484 -2.44532,0.47656 -5.42578,0.79297 -2.01954,0.21484 -3.85157,1.19531 -5.50391,2.94921 -1.64844,1.75391 -4.70313,8.10157 -9.17188,19.04297 -6.27343,14.97266 -15.73828,37.49219 -28.39843,67.55078 -2.125,5.09766 -4.19532,10.19532 -6.21485,15.29297 -2.55859,5.94922 -5.05468,10.78516 -7.5,14.5 l -0.96093,0.32031 c -1.27344,0 -3.1875,-3.1914 -5.7461,-9.57421 l -39.07422,-97.94922 c -1.49609,-3.72266 -2.82422,-6.27735 -3.99218,-7.66016 -1.59375,-1.69922 -4.09766,-3.24219 -7.4961,-4.625 h -0.63672 l -0.48047,-0.3164 c -2.44921,0.21093 -4.30859,0 -5.58593,-0.64063 l -0.31641,-0.79687 0.31641,-0.48047 0.79687,-0.48047 c 0.21485,0 0.42578,0 0.64063,0 0.3164,0 0.53125,0 0.63672,0 h 34.9414 c 1.91016,0 3.23828,0.21484 3.98438,0.63672 l 0.3164,0.47265 -0.15234,0.63672 c -0.11328,0.20703 -1.46484,0.39453 -4.07813,0.55469 -2.60156,0.15625 -4.3789,0.97266 -5.34375,2.45312 -0.10546,0.3125 -0.15234,0.78516 -0.15234,1.42188 0,1.16016 1.42578,5.53906 4.28906,13.13672 L 317,236.34375 c 24.27734,-58.72266 36.21094,-90.57813 35.77734,-95.57812 -0.3164,-0.63672 -0.58203,-1.21875 -0.79297,-1.75391 -0.53515,-0.53125 -0.95703,-0.90234 -1.27734,-1.11719 h -0.63672 c -0.74609,-0.40234 -1.89062,-0.57422 -3.43359,-0.52734 -1.53906,0.0508 -2.62891,-0.0234 -3.27344,-0.22656 l -0.47266,-0.75 0.16016,-0.45704 0.64453,-0.44921 c 0.94922,-0.19922 1.85156,-0.30469 2.70313,-0.30469 h 28.07422 c 0.32421,0 0.96484,0.10937 1.92187,0.32422 l 0.47656,0.3164 0.32422,0.47657"
     id="path64" />
  <path
     style="fill:#211e1e;fill-opacity:1;fill-rule:nonzero;stroke:none"
     d="m 432.78125,190.83594 c 0,10.21484 -3.72656,18.35156 -11.17578,24.41406 -6.91406,5.63281 -15.73828,8.45312 -26.48047,8.45312 -10.94922,0 -18.66016,-1.69921 -23.12891,-5.10156 l -0.47656,-0.96094 c -0.10937,-0.53125 -0.16016,-1.85937 -0.16016,-3.98828 0,-2.01953 0.13282,-5.02734 0.39844,-9.01562 0.26563,-3.98438 0.39844,-6.99219 0.39844,-9.00781 0.21094,-0.53125 0.42578,-0.96094 0.63672,-1.28125 l 0.63672,-0.15625 c 0.32031,0.10937 0.63672,0.26562 0.95703,0.47656 0.10547,2.02344 0.3164,4.41406 0.64453,7.17969 2.22266,10.84765 10.09375,16.27343 23.60547,16.27343 6.0625,0 11.38281,-1.9414 15.94922,-5.82422 4.57812,-3.8789 6.85937,-8.85546 6.85937,-14.91796 0,-8.39844 -3.98437,-16.375 -11.95703,-23.92579 -7.45312,-6.38281 -14.88672,-12.71484 -22.33984,-18.98437 -7.97266,-7.97656 -11.96485,-16.48437 -11.96485,-25.52734 0,-9.35547 2.92188,-16.72266 8.77735,-22.09375 5.84375,-5.3711 13.50781,-8.0586 22.96875,-8.0586 10.95703,0 18.61328,0.90625 22.97656,2.71485 l 0.32031,0.79687 v 0.63672 c 0,12.125 -0.42578,18.71875 -1.27734,19.78125 l -0.48438,0.16016 -0.63672,-0.16016 c -0.21484,-0.21094 -0.42578,-0.53125 -0.63671,-0.95312 -0.32032,-1.06641 -0.53125,-2.66016 -0.63672,-4.78907 l -0.32032,-0.63672 v -0.64062 c -0.42578,-1.05859 -1.16796,-2.55078 -2.23046,-4.46484 -3.9375,-4.57422 -10.64063,-6.85938 -20.10157,-6.85938 -12.23828,0 -18.34765,6.96875 -18.34765,20.89844 0,3.72265 2.55859,8.29297 7.65625,13.71875 2.97656,3.08594 8.30078,7.87109 15.94922,14.35937 7.23437,6.0586 12.01953,10.42188 14.36328,13.07813 2.33984,2.66015 5.05468,7.44531 8.13672,14.35547 0,1.07031 0.18359,2.71875 0.55468,4.95312 0.375,2.23047 0.56641,3.93359 0.56641,5.09766"
     id="path66" />
  <path
     style="fill:#211e1e;fill-opacity:1;fill-rule:nonzero;stroke:none"
     d="m 434.93359,167.51953 c 0,-18.10547 0.27344,-28.72656 0.80469,-31.86719 l 0.31641,-0.55078 h 1.11718 l 0.31641,0.55078 0.32031,1.38672 c -0.21484,8.86328 1.91797,14.77344 6.38282,17.73047 2.44921,1.66797 6.91015,2.67578 13.39843,3.05078 l 20.25782,0.55469 V 60.558594 c 0,-23.816406 -1.32813,-36.472656 -3.98829,-37.953125 -0.95703,-0.375 -2.17187,-1.117188 -3.66796,-2.21875 -3.71875,0 -6.21875,-0.375 -7.4961,-1.109375 l -0.32422,-1.105469 0.16016,-1.105469 c 0.21875,-0.191406 1.01562,-0.371093 2.39453,-0.5625 h 35.26172 c 1.37891,0.191407 2.17969,0.371094 2.39062,0.5625 l 0.16016,1.105469 -0.3125,1.105469 c -1.67969,0.1875 -4.19922,1.292969 -7.55859,3.328125 -2.30469,4.25 -3.45703,22.539062 -3.45703,54.863281 V 158.375 c 19.71484,0 25.75781,0 18.12109,0 9.32812,-0.36328 15.78906,-2.25 19.39453,-5.66797 1.69922,-4.67578 3.70703,-9.72265 6.03516,-15.11328 h 0.79687 c 0.32813,0.36719 0.48047,1.19922 0.48047,2.49609 0,2.21485 -0.61328,7.94141 -1.83203,17.17578 -1.22266,9.23438 -2.20703,14.77344 -2.94922,16.6211 h -0.80469 c -0.21093,0 -1.00781,-0.50781 -2.39062,-1.52344 -1.37891,-1.01172 -2.28516,-1.51953 -2.71485,-1.51953 -4.25,-0.92188 -8.40234,-1.38672 -12.4375,-1.38672 h -21.69921 c 0.10546,8.49219 0.15625,16.99219 0.15625,25.48828 0.32031,11.08594 1.4414,19.02735 3.35546,23.82813 0.42579,1.28906 1.69922,2.07812 3.83204,2.35937 2.125,0.27344 3.39843,0.59375 3.82421,0.96875 l 0.31641,1.10547 -0.15625,1.11328 c -0.21484,0.17969 -1.01172,0.36719 -2.39062,0.54688 h -35.26172 c -1.375,-0.17969 -2.17578,-0.36719 -2.39063,-0.54688 l -0.16406,-1.11328 0.31641,-1.10547 c 1.26953,-0.73828 3.73828,-1.10937 7.42578,-1.10937 0.10547,0 1.3125,-0.73438 3.625,-2.21875 2.84765,-1.66016 4.16406,-12.46875 3.94922,-32.41407 v -16.90234 h -29.82813 c -4.67969,0 -8.77734,0.92578 -12.28125,2.76953 -0.53125,0.1836 -0.80469,-1.38281 -0.80469,-4.70703"
     id="path68" />
  <path
     style="fill:#211e1e;fill-opacity:1;fill-rule:nonzero;stroke:none"
     d="m 594.86328,142.10547 c 0,-8.29688 -2.33594,-15.31641 -7.01953,-21.05859 -5,-6.16407 -11.53906,-9.25001 -19.62109,-9.25001 -8.1875,0 -12.55079,0.74219 -13.08204,2.23047 v 53.60157 c 0,0.32031 0.16797,0.64453 0.48047,0.96093 3.30078,1.91407 9.09766,2.86328 17.39063,2.86328 14.57031,0 21.85156,-9.78125 21.85156,-29.34765 z m 149.32813,117.41015 -0.16797,0.48047 -0.63282,0.80078 c 0.21094,0.10157 -1.59765,0.53516 -5.42187,1.27735 -8.83203,1.80469 -16.91406,2.70703 -24.25,2.70703 -25.32031,0 -47.75781,-7.33594 -67.32422,-22.01172 -3.72656,-2.55078 -8.98437,-6.64844 -15.79297,-12.28906 -17.33594,-17.64453 -35.25,-35.57422 -53.75781,-53.75391 -0.21484,-0.10547 -7.07813,-0.32031 -20.58594,-0.64453 l -0.63672,0.16406 -0.48047,0.64063 v 24.88672 c 0,13.61328 1.32813,20.89843 3.99219,21.85547 0.95703,0.21093 2.17969,0.64062 3.67188,1.27343 3.71875,0 6.21484,0.21875 7.49609,0.63672 l 0.3125,0.63672 -0.15234,0.63672 c -0.21875,0.11328 -1.01563,0.21484 -2.39063,0.32812 h -34.62109 c -1.38281,-0.11328 -2.17969,-0.21484 -2.39063,-0.32812 l -0.16797,-0.63672 0.32813,-0.63672 c 1.69141,-0.10547 4.25,-0.74609 7.65625,-1.91015 2.33594,-2.45313 3.50391,-12.97657 3.50391,-31.58985 v -63.17578 c 0,-5.63281 -0.0508,-8.92969 -0.15235,-9.89062 -0.42969,-4.67969 -1.70703,-7.44141 -3.83203,-8.29297 -2.875,-1.16797 -5.37109,-1.75781 -7.50391,-1.75781 -1.16796,0 -1.85937,-0.0508 -2.07031,-0.15625 l -0.32031,-0.32032 0.16016,-0.95703 0.48437,-0.47656 c 0.95703,-0.21485 1.59375,-0.32422 1.91406,-0.32422 h 38.6875 c 25.78907,0 38.67578,10.21094 38.67578,30.63281 0,5.21094 -2.10937,11.64453 -6.34765,19.30469 -4.23438,7.65625 -8.65625,12.91406 -13.26563,15.79297 23.60547,24.5625 36.79297,38.23437 39.55469,40.99609 15.64063,14.88672 30.47266,25.94922 44.51172,33.17969 17.55078,9.14453 36.00391,13.72656 55.35937,13.72656 1.38282,0 3.51172,-0.26562 6.38282,-0.80469 2.86718,-0.53125 4.99218,-0.78906 6.38281,-0.78906 l 0.63672,-0.32422 h 1.7539 l 0.80079,0.47657 v 0.63671"
     id="path70" />
  <g
     clip-path="url(#clip1)"
     clip-rule="nonzero"
     id="g74"
     transform="translate(0,16.5)">
    <path
       style="fill:#211e1e;fill-opacity:1;fill-rule:nonzero;stroke:none"
       d="m 733.45312,138.28906 c 0,3.40625 -3.05859,7.63281 -9.16796,12.6836 -6.125,5.04687 -11.08985,7.57812 -14.92188,7.57812 -4.35547,0 -10.39062,-2.28516 -18.10156,-6.85937 -7.71485,-4.57813 -13.85938,-6.86329 -18.42578,-6.86329 -5.64063,0 -9.51563,0.64063 -11.64844,1.91407 -0.95703,0 -2.46875,0.95703 -4.54688,2.86718 -2.07421,1.92188 -3.26953,3.35547 -3.58593,4.3125 -0.32032,0.21875 -1.01563,1.16797 -2.07422,2.875 l -0.48438,0.31641 -0.63672,-0.31641 V 156 c 0,-3.30078 2.94922,-7.50391 8.85938,-12.60547 5.89453,-5.10547 10.92187,-7.65625 15.07422,-7.65625 4.46484,0 10.57812,2.28516 18.34375,6.85938 7.76562,4.57031 13.77344,6.86328 18.03125,6.86328 4.67578,0 8.07812,-0.26953 10.20703,-0.80078 2.33594,-2.02344 5.47656,-4.35938 9.41406,-7.01563 0.3125,-0.32031 0.57813,-0.91016 0.79688,-1.76172 0.63672,-0.74219 1.22265,-1.53125 1.7539,-2.39062 l 0.47657,-0.32032 0.63671,0.32032 z m 5.7461,13.40235 c 0,-27.54688 -10.28125,-45.89453 -30.84375,-55.039066 -5.85938,-2.65625 -11.82031,-3.988281 -17.89844,-3.988281 -15.23047,0 -27.00391,5.105468 -35.3125,15.312497 -7.5625,9.36328 -11.33984,21.80469 -11.33984,37.33203 0,16.05469 4.08984,29.88672 12.29687,41.48047 9.375,13.08203 21.78516,19.625 37.23438,19.625 15.33593,0 27.0625,-5.48047 35.15625,-16.4375 7.13281,-9.67578 10.70703,-22.4414 10.70703,-38.28515 z m 15.15234,-4.62891 c 0,18.83203 -5.95703,34.35547 -17.86328,46.58203 -11.91797,12.23047 -27.23047,18.34375 -45.94531,18.34375 -12.23047,0 -23.07813,-2.60156 -32.54297,-7.8125 -10.21094,-5.53125 -17.65625,-13.66797 -22.33594,-24.41016 -4.68359,-10.73828 -7.01953,-20.3125 -7.01953,-28.71484 0,-18.39844 5.90234,-33.66015 17.71094,-45.78125 11.80469,-12.128905 26.85156,-18.191405 45.14453,-18.191405 18.50781,0 33.55469,5.320313 45.14844,15.953125 11.80078,10.95703 17.70312,25.63281 17.70312,44.03125"
       id="path72" />
  </g>
  <path
     style="fill:#211e1e;fill-opacity:1;fill-rule:nonzero;stroke:none"
     d="m 321.92187,92.261719 -0.0391,0.15625 c -2.74219,3.71875 -5.73437,5.574219 -8.97656,5.574219 -1.31641,0 -3.17578,-0.40625 -5.57422,-1.222657 -0.0234,0.15625 -0.0391,0.445313 -0.0391,0.867188 0,6.328121 -0.0274,8.277341 -0.0781,5.851561 0.0508,2.95313 0.38282,4.69141 0.98828,5.21875 0.52735,0.26563 1.76563,0.46094 3.71485,0.59375 h 3.71875 c 2.1875,0 3.51953,-0.72656 3.99219,-2.17578 0.0547,-0.42188 0.21093,-0.97266 0.47656,-1.66016 l 0.15625,-0.0391 0.11719,0.0391 c 0.082,0.082 0.12109,0.23828 0.12109,0.47657 0,0.21093 -0.0937,0.88281 -0.27734,2.01562 -0.1836,1.13281 -0.26563,1.76563 -0.23829,1.89844 l -0.27734,0.58984 -0.31641,0.23828 c -0.42187,0.082 -1.3164,0.1211 -2.6875,0.1211 -1.63281,0 -4.09375,-0.0234 -7.375,-0.0625 -3.28125,-0.0391 -5.73828,-0.0586 -7.37109,-0.0586 -0.42187,0 -0.67187,-0.0273 -0.75391,-0.0781 l -0.0391,-0.16016 0.082,-0.15625 c 0.41797,-0.0273 1.05078,-0.18359 1.89844,-0.47266 0.5,-0.52734 0.80078,-2.73046 0.90625,-6.60546 0,-2.42579 0.0156,-4.835941 0.0391,-7.234378 -2.16015,-1.105469 -3.57031,-1.660157 -4.23047,-1.660157 -0.78906,0 -1.69921,0.511719 -2.72656,1.542969 0.34375,-1.476562 0.63281,-2.386719 0.8711,-2.730469 0.42187,-0.632812 1.26562,-0.949218 2.52734,-0.949218 0.47656,0 1.66016,0.410156 3.55859,1.226562 0,-1.84375 0,-3.675781 0,-5.496094 -0.0508,-3.347656 -0.22265,-5.230468 -0.51172,-5.652343 -0.29296,-0.421875 -0.86328,-0.6875 -1.72265,-0.789063 C 301,81.363281 300.57031,81.296875 300.57031,81.269531 l 0.043,-0.238281 0.11719,-0.117187 c 0.47265,-0.105469 1.12109,-0.132813 1.9375,-0.07813 1.21094,0.07813 1.85937,0.117187 1.9375,0.117187 h 9.05469 c 1.6875,0 2.78125,-0.144531 3.28125,-0.433594 l 0.19921,0.117188 0.0391,0.117187 c -0.082,0.738282 -0.17188,1.199219 -0.27735,1.386719 0,2.210938 -0.16015,3.414063 -0.47656,3.597656 h -0.23828 c -0.0508,-0.05469 -0.0898,-0.136718 -0.11719,-0.242187 -0.0273,-0.105469 -0.0586,-0.292969 -0.0976,-0.558594 -0.0391,-0.265625 -0.0469,-0.46875 -0.0195,-0.601562 l -0.0781,-0.121094 c -0.13281,-0.957031 -1.17578,-1.558594 -3.125,-1.800781 -0.5,-0.05078 -1.91016,-0.07813 -4.23047,-0.07813 -0.78906,0 -1.1875,0.07813 -1.1875,0.238281 v 11.816406 c 3.03125,0.875 4.96875,1.308594 5.8125,1.308594 3.08594,0 5.53516,-0.855469 7.35547,-2.570313 0.18359,-0.261718 0.48828,-0.617187 0.91016,-1.066406 0.0234,-0.05078 0.0781,-0.105469 0.15625,-0.160156 l 0.12109,-0.117188 0.11719,0.07813 0.0781,0.121094 c -0.0273,0.105469 -0.0117,0.195313 0.0391,0.277344"
     id="path76" />
  <path
     style="fill:#211e1e;fill-opacity:1;fill-rule:nonzero;stroke:none"
     d="m 343.51172,105.74219 c 0,1.94922 -0.30469,3.53125 -0.91016,4.74609 -0.26562,0.21094 -1.0039,0.31641 -2.21484,0.31641 h -2.01563 c -1.10937,0 -2.76172,-0.0234 -4.96484,-0.0625 -2.19922,-0.0391 -3.85156,-0.0586 -4.96094,-0.0586 -0.42187,0 -0.67187,-0.0273 -0.75,-0.0781 l -0.0391,-0.16016 0.0781,-0.15625 c 0.42188,-0.0273 1.05469,-0.18359 1.89844,-0.47266 0.57813,-0.60546 0.8711,-3.21875 0.8711,-7.83203 V 84.945313 c -0.0274,-1.34375 -0.082,-2.09375 -0.16016,-2.253907 -0.16016,-0.421875 -0.69531,-0.816406 -1.60156,-1.183593 -0.53516,-0.02734 -1.09375,-0.105469 -1.67969,-0.238282 l 0.0391,-0.238281 0.11719,-0.117187 c 0.23828,-0.05469 0.39844,-0.07813 0.47656,-0.07813 h 8.73828 c 0.0781,0 0.23828,0.02344 0.47266,0.07813 l 0.11719,0.117187 0.043,0.117188 c 0,0.08203 -0.043,0.148437 -0.11719,0.199218 -0.8086,0.160157 -1.60156,0.316407 -2.38281,0.472657 -0.46875,0.265625 -0.70313,1.308593 -0.70313,3.125 V 99.37891 c 0,2.39843 0.0391,4.54687 0.11719,6.4414 0.082,1.50391 0.44922,2.48047 1.10937,2.92578 0.55078,0.3711 1.71094,0.55469 3.47657,0.55469 1.84375,0 3.03125,-0.48828 3.55859,-1.46094 0.34375,-0.84375 0.67187,-1.6875 0.98828,-2.53125 l 0.16016,-0.0391 0.11718,0.0391 c 0.0781,0.0781 0.1211,0.22266 0.1211,0.4336"
     id="path78" />
</svg>
