<?xml version="1.0" encoding="UTF-8" standalone="no"?>
<svg
   version="1.1"
   id="Capa_1"
   x="0px"
   y="0px"
   width="699.428px"
   height="699.428px"
   viewBox="0 0 699.428 699.428"
   style="enable-background:new 0 0 699.428 699.428;"
   xml:space="preserve"
   sodipodi:docname="copy.svg"
   inkscape:version="1.2.2 (b0a84865, 2022-12-01)"
   xmlns:inkscape="http://www.inkscape.org/namespaces/inkscape"
   xmlns:sodipodi="http://sodipodi.sourceforge.net/DTD/sodipodi-0.dtd"
   xmlns:xlink="http://www.w3.org/1999/xlink"
   xmlns="http://www.w3.org/2000/svg"
   xmlns:svg="http://www.w3.org/2000/svg"
   xmlns:rdf="http://www.w3.org/1999/02/22-rdf-syntax-ns#"
   xmlns:cc="http://creativecommons.org/ns#"><defs
   id="defs42"><color-profile
   name="Adobe-RGB--1998-"
   xlink:href="file:///System/Library/ColorSync/Profiles/AdobeRGB1998.icc"
   id="color-profile3064" />
	
</defs><sodipodi:namedview
   id="namedview40"
   pagecolor="#ffffff"
   bordercolor="#000000"
   borderopacity="0.25"
   inkscape:showpageshadow="2"
   inkscape:pageopacity="0.0"
   inkscape:pagecheckerboard="0"
   inkscape:deskcolor="#d1d1d1"
   showgrid="false"
   inkscape:zoom="0.33741859"
   inkscape:cx="349.71399"
   inkscape:cy="352.67767"
   inkscape:window-width="1309"
   inkscape:window-height="782"
   inkscape:window-x="0"
   inkscape:window-y="25"
   inkscape:window-maximized="0"
   inkscape:current-layer="Capa_1" />
<g
   id="_x33__21_">
		<g
   id="g4">
			<path
   fill="#04a763"
   d="M 502.714,0 C 500.004,0 240.428,0 240.428,0 194.178,0 153,42.425 153,87.429 l -25.267,0.59 c -46.228,0 -84.019,41.834 -84.019,86.838 V 612 c 0,45.004 41.179,87.428 87.429,87.428 H 459 c 46.249,0 87.428,-42.424 87.428,-87.428 h 21.857 c 46.25,0 87.429,-42.424 87.429,-87.428 V 175.382 Z M 459,655.715 H 131.143 c -22.95,0 -43.714,-21.441 -43.714,-43.715 V 174.857 c 0,-22.272 18.688,-42.993 41.638,-42.993 L 153,131.143 V 524.572 C 153,569.576 194.178,612 240.428,612 h 262.286 c 0,22.273 -20.765,43.715 -43.714,43.715 z M 612,524.572 c 0,22.271 -20.765,43.713 -43.715,43.713 H 240.428 c -22.95,0 -43.714,-21.441 -43.714,-43.713 V 87.429 c 0,-22.272 20.764,-43.714 43.714,-43.714 H 459 c -0.351,50.337 0,87.975 0,87.975 0,45.419 40.872,86.882 87.428,86.882 0,0 23.213,0 65.572,0 z M 546.428,174.857 c -23.277,0 -43.714,-42.293 -43.714,-64.981 0,0 0,-22.994 0,-65.484 V 44.348 L 612,174.857 Z M 502.714,306.394 H 306 c -12.065,0 -21.857,9.77 -21.857,21.835 0,12.065 9.792,21.835 21.857,21.835 h 196.714 c 12.065,0 21.857,-9.771 21.857,-21.835 0,-12.065 -9.792,-21.835 -21.857,-21.835 z m 0,109.176 H 306 c -12.065,0 -21.857,9.77 -21.857,21.834 0,12.066 9.792,21.836 21.857,21.836 h 196.714 c 12.065,0 21.857,-9.77 21.857,-21.836 0,-12.064 -9.792,-21.834 -21.857,-21.834 z"
   id="path2" />
		</g>
	</g>
<g
   id="g9">
</g>
<g
   id="g11">
</g>
<g
   id="g13">
</g>
<g
   id="g15">
</g>
<g
   id="g17">
</g>
<g
   id="g19">
</g>
<g
   id="g21">
</g>
<g
   id="g23">
</g>
<g
   id="g25">
</g>
<g
   id="g27">
</g>
<g
   id="g29">
</g>
<g
   id="g31">
</g>
<g
   id="g33">
</g>
<g
   id="g35">
</g>
<g
   id="g37">
</g>
<metadata
   id="metadata2699"><rdf:RDF><cc:Work
       rdf:about=""><cc:license
         rdf:resource="http://creativecommons.org/licenses/by-nc-sa/4.0/" /></cc:Work><cc:License
       rdf:about="http://creativecommons.org/licenses/by-nc-sa/4.0/"><cc:permits
         rdf:resource="http://creativecommons.org/ns#Reproduction" /><cc:permits
         rdf:resource="http://creativecommons.org/ns#Distribution" /><cc:requires
         rdf:resource="http://creativecommons.org/ns#Notice" /><cc:requires
         rdf:resource="http://creativecommons.org/ns#Attribution" /><cc:prohibits
         rdf:resource="http://creativecommons.org/ns#CommercialUse" /><cc:permits
         rdf:resource="http://creativecommons.org/ns#DerivativeWorks" /><cc:requires
         rdf:resource="http://creativecommons.org/ns#ShareAlike" /></cc:License></rdf:RDF></metadata></svg>
