<?xml version="1.0" encoding="UTF-8" standalone="no"?>
<svg
   id="Layer"
   enable-background="new 0 0 64 64"
   height="512"
   viewBox="0 0 64 64"
   width="512"
   version="1.1"
   sodipodi:docname="link.svg"
   inkscape:version="1.2.2 (b0a84865, 2022-12-01)"
   xmlns:inkscape="http://www.inkscape.org/namespaces/inkscape"
   xmlns:sodipodi="http://sodipodi.sourceforge.net/DTD/sodipodi-0.dtd"
   xmlns="http://www.w3.org/2000/svg"
   xmlns:svg="http://www.w3.org/2000/svg">
  <defs
     id="defs9" />
  <sodipodi:namedview
     id="namedview7"
     pagecolor="#ffffff"
     bordercolor="#000000"
     borderopacity="0.25"
     inkscape:showpageshadow="2"
     inkscape:pageopacity="0.0"
     inkscape:pagecheckerboard="0"
     inkscape:deskcolor="#d1d1d1"
     showgrid="false"
     inkscape:zoom="0.4609375"
     inkscape:cx="256"
     inkscape:cy="256"
     inkscape:window-width="1309"
     inkscape:window-height="456"
     inkscape:window-x="0"
     inkscape:window-y="25"
     inkscape:window-maximized="0"
     inkscape:current-layer="Layer" />
  <path
     d="m 19.5,40 c 1.104,0 2,-0.896 2,-2 0,-1.104 -0.896,-2 -2,-2 -3.86,0 -7,-3.14 -7,-7 0,-1.873 0.728,-3.628 2.059,-4.95 C 15.872,22.728 17.627,22 19.5,22 h 10 c 3.86,0 7,3.14 7,7 0,0.258 -0.015,0.509 -0.048,0.78 -0.174,1.574 -0.885,3.052 -2.017,4.176 -0.532,0.54 -1.137,0.974 -1.797,1.289 -0.997,0.476 -1.419,1.669 -0.944,2.666 0.476,0.996 1.669,1.419 2.667,0.943 1.08,-0.516 2.063,-1.219 2.908,-2.075 1.763,-1.75 2.885,-4.08 3.156,-6.539 0.051,-0.413 0.075,-0.819 0.075,-1.24 0,-6.065 -4.935,-11 -11,-11 h -10 c -2.947,0 -5.709,1.147 -7.77,3.221 C 9.647,23.291 8.5,26.053 8.5,29 c 0,6.065 4.935,11 11,11 z"
     id="path2" />
  <path
     d="m45 28c-1.104 0-2 .896-2 2s.896 2 2 2c3.86 0 7 3.141 7 7 0 1.873-.728 3.628-2.059 4.95-1.313 1.322-3.068 2.05-4.941 2.05h-10c-3.86 0-7-3.141-7-7 0-.258.015-.509.048-.78.174-1.574.885-3.052 2.017-4.176.532-.54 1.136-.974 1.796-1.289.997-.476 1.419-1.67.944-2.667s-1.669-1.418-2.667-.944c-1.081.516-2.064 1.22-2.908 2.076-1.763 1.75-2.885 4.08-3.156 6.538-.05.415-.074.821-.074 1.242 0 6.065 4.935 11 11 11h10c2.946 0 5.709-1.147 7.77-3.221 2.083-2.07 3.23-4.833 3.23-7.779 0-6.065-4.935-11-11-11z"
     id="path4" />
</svg>
